<?xml version="1.0" encoding="UTF-8" standalone="no"?>
<!DOCTYPE svg PUBLIC "-//W3C//DTD SVG 1.1//EN"
 "http://www.w3.org/Graphics/SVG/1.1/DTD/svg11.dtd">
<!-- Generated by graphviz version 2.43.0 (0)
 -->
<!-- Title: G Pages: 1 -->
<svg width="1461pt" height="657pt"
 viewBox="0.00 0.00 1461.12 656.98" xmlns="http://www.w3.org/2000/svg" xmlns:xlink="http://www.w3.org/1999/xlink">
<g id="graph0" class="graph" transform="scale(1 1) rotate(0) translate(4 652.98)">
<title>G</title><style>.edge>path:hover{stroke-width:8}</style>
<polygon fill="white" stroke="transparent" points="-4,4 -4,-652.98 1457.12,-652.98 1457.12,4 -4,4"/>
<!-- luna -->
<g id="node1" class="node">
<title>luna</title><style>.edge>path:hover{stroke-width:8}</style>
<polygon fill="blue" stroke="black" points="1453.12,-111.99 1399.12,-111.99 1399.12,-75.99 1453.12,-75.99 1453.12,-111.99"/>
<text text-anchor="middle" x="1426.12" y="-91.49" font-family="Helvetica,sans-Serif" font-size="10.00" fill="white">luna</text>
</g>
<!-- luna_config -->
<g id="node2" class="node">
<title>luna_config</title><style>.edge>path:hover{stroke-width:8}</style>
<ellipse fill="#db2f2f" stroke="black" cx="48.79" cy="-287.99" rx="41.41" ry="18"/>
<text text-anchor="middle" x="48.79" y="-285.49" font-family="Helvetica,sans-Serif" font-size="10.00" fill="#ffffff">luna.config</text>
</g>
<!-- luna_io_nac_reader -->
<g id="node5" class="node">
<title>luna_io_nac_reader</title><style>.edge>path:hover{stroke-width:8}</style>
<polygon fill="blue" stroke="black" points="352.87,-173.49 281.87,-173.49 281.87,-132.49 352.87,-132.49 352.87,-173.49"/>
<text text-anchor="middle" x="317.37" y="-161.49" font-family="Helvetica,sans-Serif" font-size="10.00" fill="white">luna.</text>
<text text-anchor="middle" x="317.37" y="-150.49" font-family="Helvetica,sans-Serif" font-size="10.00" fill="white">io.</text>
<text text-anchor="middle" x="317.37" y="-139.49" font-family="Helvetica,sans-Serif" font-size="10.00" fill="white">nac_reader</text>
</g>
<!-- luna_config&#45;&gt;luna_io_nac_reader -->
<g id="edge1" class="edge">
<title>luna_config&#45;&gt;luna_io_nac_reader</title><style>.edge>path:hover{stroke-width:8}</style>
<path fill="none" stroke="black" d="M181.25,-28.99C233.77,-10.52 219.59,-89.03 262.92,-123.99 266.15,-126.6 269.66,-129.1 273.27,-131.45"/>
<polygon fill="#db2f2f" stroke="black" points="271.47,-134.45 281.83,-136.66 275.11,-128.47 271.47,-134.45"/>
</g>
<!-- luna_models_essa -->
<g id="node14" class="node">
<title>luna_models_essa</title><style>.edge>path:hover{stroke-width:8}</style>
<polygon fill="blue" stroke="black" points="851.12,-315.49 795.12,-315.49 795.12,-274.49 851.12,-274.49 851.12,-315.49"/>
<text text-anchor="middle" x="823.12" y="-303.49" font-family="Helvetica,sans-Serif" font-size="10.00" fill="white">luna.</text>
<text text-anchor="middle" x="823.12" y="-292.49" font-family="Helvetica,sans-Serif" font-size="10.00" fill="white">models.</text>
<text text-anchor="middle" x="823.12" y="-281.49" font-family="Helvetica,sans-Serif" font-size="10.00" fill="white">essa</text>
</g>
<!-- luna_config&#45;&gt;luna_models_essa -->
<g id="edge2" class="edge">
<title>luna_config&#45;&gt;luna_models_essa</title><style>.edge>path:hover{stroke-width:8}</style>
<path fill="none" stroke="black" d="M83.79,-297.55C125.58,-308.86 198.85,-327.25 262.92,-335.99 404.65,-355.33 441.95,-365.35 584.36,-351.99"/>
<path fill="none" stroke="black" d="M586.36,-351.99C637.12,-346.59 643.99,-308.5 694.74,-313.99"/>
</g>
<!-- luna_pipeline -->
<g id="node16" class="node">
<title>luna_pipeline</title><style>.edge>path:hover{stroke-width:8}</style>
<polygon fill="blue" stroke="black" points="1363.12,-111.99 1283.12,-111.99 1283.12,-75.99 1363.12,-75.99 1363.12,-111.99"/>
<text text-anchor="middle" x="1323.12" y="-91.49" font-family="Helvetica,sans-Serif" font-size="10.00" fill="white">luna.pipeline</text>
</g>
<!-- luna_config&#45;&gt;luna_pipeline -->
<g id="edge3" class="edge">
<title>luna_config&#45;&gt;luna_pipeline</title><style>.edge>path:hover{stroke-width:8}</style>
<path fill="none" stroke="black" d="M586.36,-351.99C634.26,-346.89 646.61,-350.25 694.74,-351.99"/>
</g>
<!-- luna_screening_candidate_gen -->
<g id="node18" class="node">
<title>luna_screening_candidate_gen</title><style>.edge>path:hover{stroke-width:8}</style>
<polygon fill="blue" stroke="black" points="867.12,-163.49 779.12,-163.49 779.12,-122.49 867.12,-122.49 867.12,-163.49"/>
<text text-anchor="middle" x="823.12" y="-151.49" font-family="Helvetica,sans-Serif" font-size="10.00" fill="white">luna.</text>
<text text-anchor="middle" x="823.12" y="-140.49" font-family="Helvetica,sans-Serif" font-size="10.00" fill="white">screening.</text>
<text text-anchor="middle" x="823.12" y="-129.49" font-family="Helvetica,sans-Serif" font-size="10.00" fill="white">candidate_gen</text>
</g>
<!-- luna_config&#45;&gt;luna_screening_candidate_gen -->
<g id="edge4" class="edge">
<title>luna_config&#45;&gt;luna_screening_candidate_gen</title><style>.edge>path:hover{stroke-width:8}</style>
<path fill="none" stroke="black" d="M51.15,-269.68C56.24,-216.59 79.43,-64.1 179.25,-28.99"/>
<path fill="none" stroke="black" d="M181.25,-28.99C324.49,21.39 377.43,-2.72 522.36,-47.99 553.21,-57.63 552.26,-82.24 584.36,-85.99"/>
<path fill="none" stroke="black" d="M586.36,-85.99C634.24,-91.3 646.58,-86.64 694.74,-85.99"/>
<path fill="none" stroke="black" d="M696.74,-85.99C729.11,-85.56 762.3,-101.52 786.4,-116.66"/>
<polygon fill="#db2f2f" stroke="black" points="784.56,-119.64 794.85,-122.17 788.38,-113.78 784.56,-119.64"/>
</g>
<!-- luna_io -->
<g id="node3" class="node">
<title>luna_io</title><style>.edge>path:hover{stroke-width:8}</style>
<polygon fill="blue" stroke="black" points="612.36,-209.99 558.36,-209.99 558.36,-173.99 612.36,-173.99 612.36,-209.99"/>
<text text-anchor="middle" x="585.36" y="-189.49" font-family="Helvetica,sans-Serif" font-size="10.00" fill="white">luna.io</text>
</g>
<!-- luna_io&#45;&gt;luna_models_essa -->
<g id="edge5" class="edge">
<title>luna_io&#45;&gt;luna_models_essa</title><style>.edge>path:hover{stroke-width:8}</style>
<path fill="none" stroke="black" d="M593.05,-210.04C602.28,-232.71 620.96,-271.49 648.36,-294.99 665.27,-309.49 672.6,-311.6 694.74,-313.99"/>
<path fill="none" stroke="black" d="M696.74,-313.99C726.56,-317.22 760.15,-311.63 785.05,-305.69"/>
<polygon fill="blue" stroke="black" points="785.96,-309.07 794.81,-303.24 784.26,-302.28 785.96,-309.07"/>
</g>
<!-- luna_io&#45;&gt;luna_pipeline -->
<g id="edge6" class="edge">
<title>luna_io&#45;&gt;luna_pipeline</title><style>.edge>path:hover{stroke-width:8}</style>
<path fill="none" stroke="black" d="M612.4,-190.28C684.49,-185.91 885.38,-176.26 946.12,-199.99"/>
</g>
<!-- luna_io&#45;&gt;luna_screening_candidate_gen -->
<g id="edge7" class="edge">
<title>luna_io&#45;&gt;luna_screening_candidate_gen</title><style>.edge>path:hover{stroke-width:8}</style>
<path fill="none" stroke="black" d="M594.77,-173.67C610.01,-143.51 645.27,-86.66 694.74,-85.99"/>
</g>
<!-- luna_io_kernel_fetch -->
<g id="node4" class="node">
<title>luna_io_kernel_fetch</title><style>.edge>path:hover{stroke-width:8}</style>
<ellipse fill="#c24747" stroke="black" cx="317.37" cy="-85.99" rx="54.39" ry="28.98"/>
<text text-anchor="middle" x="317.37" y="-94.49" font-family="Helvetica,sans-Serif" font-size="10.00" fill="#ffffff">luna.</text>
<text text-anchor="middle" x="317.37" y="-83.49" font-family="Helvetica,sans-Serif" font-size="10.00" fill="#ffffff">io.</text>
<text text-anchor="middle" x="317.37" y="-72.49" font-family="Helvetica,sans-Serif" font-size="10.00" fill="#ffffff">kernel_fetch</text>
</g>
<!-- luna_io_kernel_fetch&#45;&gt;luna_io -->
<g id="edge8" class="edge">
<title>luna_io_kernel_fetch&#45;&gt;luna_io</title><style>.edge>path:hover{stroke-width:8}</style>
<path fill="none" stroke="black" d="M359.38,-104.6C388.17,-117.02 427.85,-132.87 464.09,-142.99"/>
<path fill="none" stroke="black" d="M466.09,-142.99C491.51,-150.09 497.93,-152 522.36,-161.99 531.14,-165.58 540.43,-169.83 549.08,-173.98"/>
<polygon fill="#c24747" stroke="black" points="547.62,-177.16 558.14,-178.41 550.69,-170.87 547.62,-177.16"/>
</g>
<!-- luna_io_spice_project -->
<g id="node9" class="node">
<title>luna_io_spice_project</title><style>.edge>path:hover{stroke-width:8}</style>
<ellipse fill="#c04040" stroke="black" cx="465.09" cy="-85.99" rx="57.05" ry="28.98"/>
<text text-anchor="middle" x="465.09" y="-94.49" font-family="Helvetica,sans-Serif" font-size="10.00" fill="#ffffff">luna.</text>
<text text-anchor="middle" x="465.09" y="-83.49" font-family="Helvetica,sans-Serif" font-size="10.00" fill="#ffffff">io.</text>
<text text-anchor="middle" x="465.09" y="-72.49" font-family="Helvetica,sans-Serif" font-size="10.00" fill="#ffffff">spice_project</text>
</g>
<!-- luna_io_kernel_fetch&#45;&gt;luna_io_spice_project -->
<g id="edge9" class="edge">
<title>luna_io_kernel_fetch&#45;&gt;luna_io_spice_project</title><style>.edge>path:hover{stroke-width:8}</style>
<path fill="none" stroke="black" d="M372.21,-85.99C380.4,-85.99 388.93,-85.99 397.35,-85.99"/>
<polygon fill="#c24747" stroke="black" points="397.53,-89.49 407.53,-85.99 397.53,-82.49 397.53,-89.49"/>
</g>
<!-- luna_io_nac_reader&#45;&gt;luna_io -->
<g id="edge10" class="edge">
<title>luna_io_nac_reader&#45;&gt;luna_io</title><style>.edge>path:hover{stroke-width:8}</style>
<path fill="none" stroke="black" d="M352.89,-144.19C382.84,-138.06 427.09,-132.66 464.09,-142.99"/>
</g>
<!-- luna_io_projection -->
<g id="node8" class="node">
<title>luna_io_projection</title><style>.edge>path:hover{stroke-width:8}</style>
<polygon fill="blue" stroke="black" points="497.59,-212.49 432.59,-212.49 432.59,-171.49 497.59,-171.49 497.59,-212.49"/>
<text text-anchor="middle" x="465.09" y="-200.49" font-family="Helvetica,sans-Serif" font-size="10.00" fill="white">luna.</text>
<text text-anchor="middle" x="465.09" y="-189.49" font-family="Helvetica,sans-Serif" font-size="10.00" fill="white">io.</text>
<text text-anchor="middle" x="465.09" y="-178.49" font-family="Helvetica,sans-Serif" font-size="10.00" fill="white">projection</text>
</g>
<!-- luna_io_nac_reader&#45;&gt;luna_io_projection -->
<g id="edge11" class="edge">
<title>luna_io_nac_reader&#45;&gt;luna_io_projection</title><style>.edge>path:hover{stroke-width:8}</style>
<path fill="none" stroke="black" d="M352.9,-162.23C373.77,-167.82 400.52,-174.98 422.54,-180.87"/>
<polygon fill="blue" stroke="black" points="421.73,-184.28 432.29,-183.48 423.54,-177.52 421.73,-184.28"/>
</g>
<!-- luna_io_pds_fetch -->
<g id="node6" class="node">
<title>luna_io_pds_fetch</title><style>.edge>path:hover{stroke-width:8}</style>
<ellipse fill="#cc3333" stroke="black" cx="317.37" cy="-297.99" rx="45.01" ry="28.98"/>
<text text-anchor="middle" x="317.37" y="-306.49" font-family="Helvetica,sans-Serif" font-size="10.00" fill="#ffffff">luna.</text>
<text text-anchor="middle" x="317.37" y="-295.49" font-family="Helvetica,sans-Serif" font-size="10.00" fill="#ffffff">io.</text>
<text text-anchor="middle" x="317.37" y="-284.49" font-family="Helvetica,sans-Serif" font-size="10.00" fill="#ffffff">pds_fetch</text>
</g>
<!-- luna_io_pds_fetch&#45;&gt;luna_io -->
<g id="edge12" class="edge">
<title>luna_io_pds_fetch&#45;&gt;luna_io</title><style>.edge>path:hover{stroke-width:8}</style>
<path fill="none" stroke="black" d="M361.16,-305.87C390.4,-309.91 429.91,-312.72 464.09,-305.99"/>
<path fill="none" stroke="black" d="M466.09,-305.99C513.51,-296.66 549.98,-249.73 569.21,-219.06"/>
<polygon fill="#cc3333" stroke="black" points="572.44,-220.5 574.62,-210.13 566.45,-216.87 572.44,-220.5"/>
</g>
<!-- luna_io_pds_fetch&#45;&gt;luna_io_projection -->
<g id="edge13" class="edge">
<title>luna_io_pds_fetch&#45;&gt;luna_io_projection</title><style>.edge>path:hover{stroke-width:8}</style>
<path fill="none" stroke="black" d="M347.86,-276.54C370.77,-259.87 402.68,-236.66 427.27,-218.77"/>
<polygon fill="#cc3333" stroke="black" points="429.61,-221.4 435.64,-212.69 425.49,-215.74 429.61,-221.4"/>
</g>
<!-- luna_io_pds_fetch&#45;&gt;luna_pipeline -->
<g id="edge14" class="edge">
<title>luna_io_pds_fetch&#45;&gt;luna_pipeline</title><style>.edge>path:hover{stroke-width:8}</style>
<path fill="none" stroke="black" d="M466.09,-305.99C567.8,-285.98 591.47,-342.98 694.74,-351.99"/>
<path fill="none" stroke="black" d="M696.74,-351.99C832.02,-359.01 873.35,-339.93 991.12,-272.99 1008.5,-263.11 1007.12,-245.99 1027.12,-245.99"/>
</g>
<!-- luna_io_pds_index -->
<g id="node7" class="node">
<title>luna_io_pds_index</title><style>.edge>path:hover{stroke-width:8}</style>
<ellipse fill="#ce3b3b" stroke="black" cx="180.25" cy="-240.99" rx="46.84" ry="28.98"/>
<text text-anchor="middle" x="180.25" y="-249.49" font-family="Helvetica,sans-Serif" font-size="10.00" fill="#ffffff">luna.</text>
<text text-anchor="middle" x="180.25" y="-238.49" font-family="Helvetica,sans-Serif" font-size="10.00" fill="#ffffff">io.</text>
<text text-anchor="middle" x="180.25" y="-227.49" font-family="Helvetica,sans-Serif" font-size="10.00" fill="#ffffff">pds_index</text>
</g>
<!-- luna_io_pds_index&#45;&gt;luna_io -->
<g id="edge15" class="edge">
<title>luna_io_pds_index&#45;&gt;luna_io</title><style>.edge>path:hover{stroke-width:8}</style>
<path fill="none" stroke="black" d="M226.77,-243.7C292.96,-246.45 419.14,-247.13 522.36,-220.99 531.32,-218.72 540.55,-215.16 549.07,-211.29"/>
<polygon fill="#ce3b3b" stroke="black" points="550.83,-214.33 558.33,-206.86 547.8,-208.02 550.83,-214.33"/>
</g>
<!-- luna_io_pds_index&#45;&gt;luna_io_nac_reader -->
<g id="edge16" class="edge">
<title>luna_io_pds_index&#45;&gt;luna_io_nac_reader</title><style>.edge>path:hover{stroke-width:8}</style>
<path fill="none" stroke="black" d="M213.27,-220.14C232.03,-207.92 255.91,-192.37 275.96,-179.31"/>
<polygon fill="#ce3b3b" stroke="black" points="278.11,-182.09 284.58,-173.7 274.29,-176.22 278.11,-182.09"/>
</g>
<!-- luna_io_pds_index&#45;&gt;luna_io_pds_fetch -->
<g id="edge17" class="edge">
<title>luna_io_pds_index&#45;&gt;luna_io_pds_fetch</title><style>.edge>path:hover{stroke-width:8}</style>
<path fill="none" stroke="black" d="M219.25,-257.02C234.91,-263.63 253.21,-271.35 269.67,-278.29"/>
<polygon fill="#ce3b3b" stroke="black" points="268.55,-281.62 279.12,-282.28 271.27,-275.17 268.55,-281.62"/>
</g>
<!-- luna_io_projection&#45;&gt;luna_io -->
<g id="edge18" class="edge">
<title>luna_io_projection&#45;&gt;luna_io</title><style>.edge>path:hover{stroke-width:8}</style>
<path fill="none" stroke="black" d="M497.78,-191.99C513.28,-191.99 532,-191.99 548.06,-191.99"/>
<polygon fill="blue" stroke="black" points="548.18,-195.49 558.17,-191.99 548.17,-188.49 548.18,-195.49"/>
</g>
<!-- luna_io_spice_project&#45;&gt;luna_io -->
<g id="edge19" class="edge">
<title>luna_io_spice_project&#45;&gt;luna_io</title><style>.edge>path:hover{stroke-width:8}</style>
<path fill="none" stroke="black" d="M498.56,-109.56C506.52,-115.68 514.9,-122.4 522.36,-128.99 535.67,-140.73 549.61,-154.73 560.9,-166.54"/>
<polygon fill="#c04040" stroke="black" points="558.48,-169.08 567.89,-173.94 563.57,-164.27 558.48,-169.08"/>
</g>
<!-- luna_io_spice_project&#45;&gt;luna_screening_candidate_gen -->
<g id="edge20" class="edge">
<title>luna_io_spice_project&#45;&gt;luna_screening_candidate_gen</title><style>.edge>path:hover{stroke-width:8}</style>
<path fill="none" stroke="black" d="M522.2,-83.33C541.91,-83.1 564.17,-83.63 584.36,-85.99"/>
</g>
<!-- luna_labels -->
<g id="node10" class="node">
<title>luna_labels</title><style>.edge>path:hover{stroke-width:8}</style>
<ellipse fill="#9f5656" stroke="black" cx="180.25" cy="-505.99" rx="41.41" ry="18"/>
<text text-anchor="middle" x="180.25" y="-503.49" font-family="Helvetica,sans-Serif" font-size="10.00" fill="#ffffff">luna.labels</text>
</g>
<!-- luna_labels_ellipse -->
<g id="node11" class="node">
<title>luna_labels_ellipse</title><style>.edge>path:hover{stroke-width:8}</style>
<ellipse fill="#b65353" stroke="black" cx="48.79" cy="-543.99" rx="34.8" ry="28.98"/>
<text text-anchor="middle" x="48.79" y="-552.49" font-family="Helvetica,sans-Serif" font-size="10.00" fill="#ffffff">luna.</text>
<text text-anchor="middle" x="48.79" y="-541.49" font-family="Helvetica,sans-Serif" font-size="10.00" fill="#ffffff">labels.</text>
<text text-anchor="middle" x="48.79" y="-530.49" font-family="Helvetica,sans-Serif" font-size="10.00" fill="#ffffff">ellipse</text>
</g>
<!-- luna_labels_ellipse&#45;&gt;luna_labels -->
<g id="edge21" class="edge">
<title>luna_labels_ellipse&#45;&gt;luna_labels</title><style>.edge>path:hover{stroke-width:8}</style>
<path fill="none" stroke="black" d="M81.79,-534.6C97.94,-529.86 117.78,-524.04 135.33,-518.88"/>
<polygon fill="#b65353" stroke="black" points="136.75,-522.12 145.35,-515.94 134.77,-515.4 136.75,-522.12"/>
</g>
<!-- luna_labels_lpa -->
<g id="node12" class="node">
<title>luna_labels_lpa</title><style>.edge>path:hover{stroke-width:8}</style>
<ellipse fill="#b65353" stroke="black" cx="48.79" cy="-467.99" rx="34.8" ry="28.98"/>
<text text-anchor="middle" x="48.79" y="-476.49" font-family="Helvetica,sans-Serif" font-size="10.00" fill="#ffffff">luna.</text>
<text text-anchor="middle" x="48.79" y="-465.49" font-family="Helvetica,sans-Serif" font-size="10.00" fill="#ffffff">labels.</text>
<text text-anchor="middle" x="48.79" y="-454.49" font-family="Helvetica,sans-Serif" font-size="10.00" fill="#ffffff">lpa</text>
</g>
<!-- luna_labels_lpa&#45;&gt;luna_labels -->
<g id="edge22" class="edge">
<title>luna_labels_lpa&#45;&gt;luna_labels</title><style>.edge>path:hover{stroke-width:8}</style>
<path fill="none" stroke="black" d="M81.79,-477.38C97.94,-482.12 117.78,-487.95 135.33,-493.1"/>
<polygon fill="#b65353" stroke="black" points="134.77,-496.58 145.35,-496.04 136.75,-489.87 134.77,-496.58"/>
</g>
<!-- luna_models -->
<g id="node13" class="node">
<title>luna_models</title><style>.edge>path:hover{stroke-width:8}</style>
<polygon fill="blue" stroke="black" points="985.62,-263.99 908.62,-263.99 908.62,-227.99 985.62,-227.99 985.62,-263.99"/>
<text text-anchor="middle" x="947.12" y="-243.49" font-family="Helvetica,sans-Serif" font-size="10.00" fill="white">luna.models</text>
</g>
<!-- luna_models&#45;&gt;luna_pipeline -->
<g id="edge23" class="edge">
<title>luna_models&#45;&gt;luna_pipeline</title><style>.edge>path:hover{stroke-width:8}</style>
<path fill="none" stroke="black" d="M985.89,-245.99C998.95,-245.99 1013.68,-245.99 1027.12,-245.99"/>
</g>
<!-- luna_models_essa&#45;&gt;luna_models -->
<g id="edge24" class="edge">
<title>luna_models_essa&#45;&gt;luna_models</title><style>.edge>path:hover{stroke-width:8}</style>
<path fill="none" stroke="black" d="M851.19,-284.12C865.28,-278.46 882.9,-271.38 899.12,-264.87"/>
<polygon fill="blue" stroke="black" points="900.5,-268.08 908.48,-261.11 897.89,-261.59 900.5,-268.08"/>
</g>
<!-- luna_models_maskrcnn -->
<g id="node15" class="node">
<title>luna_models_maskrcnn</title><style>.edge>path:hover{stroke-width:8}</style>
<ellipse fill="#c24747" stroke="black" cx="695.74" cy="-256.99" rx="45.92" ry="28.98"/>
<text text-anchor="middle" x="695.74" y="-265.49" font-family="Helvetica,sans-Serif" font-size="10.00" fill="#ffffff">luna.</text>
<text text-anchor="middle" x="695.74" y="-254.49" font-family="Helvetica,sans-Serif" font-size="10.00" fill="#ffffff">models.</text>
<text text-anchor="middle" x="695.74" y="-243.49" font-family="Helvetica,sans-Serif" font-size="10.00" fill="#ffffff">maskrcnn</text>
</g>
<!-- luna_models_maskrcnn&#45;&gt;luna_models -->
<g id="edge25" class="edge">
<title>luna_models_maskrcnn&#45;&gt;luna_models</title><style>.edge>path:hover{stroke-width:8}</style>
<path fill="none" stroke="black" d="M741.61,-255.01C785.84,-253.06 853.2,-250.09 898.39,-248.1"/>
<polygon fill="#c24747" stroke="black" points="898.69,-251.59 908.53,-247.65 898.38,-244.59 898.69,-251.59"/>
</g>
<!-- luna_models_maskrcnn&#45;&gt;luna_models_essa -->
<g id="edge26" class="edge">
<title>luna_models_maskrcnn&#45;&gt;luna_models_essa</title><style>.edge>path:hover{stroke-width:8}</style>
<path fill="none" stroke="black" d="M737.45,-269.33C752.78,-273.98 770.13,-279.24 785.11,-283.78"/>
<polygon fill="#c24747" stroke="black" points="784.47,-287.24 795.05,-286.79 786.5,-280.54 784.47,-287.24"/>
</g>
<!-- luna_pipeline&#45;&gt;luna -->
<g id="edge27" class="edge">
<title>luna_pipeline&#45;&gt;luna</title><style>.edge>path:hover{stroke-width:8}</style>
<path fill="none" stroke="black" d="M1363.17,-93.99C1371.6,-93.99 1380.48,-93.99 1388.8,-93.99"/>
<polygon fill="blue" stroke="black" points="1388.96,-97.49 1398.96,-93.99 1388.96,-90.49 1388.96,-97.49"/>
</g>
<!-- luna_screening -->
<g id="node17" class="node">
<title>luna_screening</title><style>.edge>path:hover{stroke-width:8}</style>
<polygon fill="blue" stroke="black" points="991.12,-157.99 903.12,-157.99 903.12,-121.99 991.12,-121.99 991.12,-157.99"/>
<text text-anchor="middle" x="947.12" y="-137.49" font-family="Helvetica,sans-Serif" font-size="10.00" fill="white">luna.screening</text>
</g>
<!-- luna_screening&#45;&gt;luna_pipeline -->
<g id="edge28" class="edge">
<title>luna_screening&#45;&gt;luna_pipeline</title><style>.edge>path:hover{stroke-width:8}</style>
<path fill="none" stroke="black" d="M1028.12,-207.99C1063.32,-211.75 1063.02,-241.41 1098.12,-245.99"/>
<path fill="none" stroke="black" d="M1100.12,-245.99C1188.85,-257.58 1269.1,-166.7 1303.87,-120.23"/>
<polygon fill="blue" stroke="black" points="1306.74,-122.24 1309.83,-112.1 1301.09,-118.1 1306.74,-122.24"/>
</g>
<!-- luna_storage_faiss_store -->
<g id="node22" class="node">
<title>luna_storage_faiss_store</title><style>.edge>path:hover{stroke-width:8}</style>
<polygon fill="blue" stroke="black" points="1134.12,-114.49 1064.12,-114.49 1064.12,-73.49 1134.12,-73.49 1134.12,-114.49"/>
<text text-anchor="middle" x="1099.12" y="-102.49" font-family="Helvetica,sans-Serif" font-size="10.00" fill="white">luna.</text>
<text text-anchor="middle" x="1099.12" y="-91.49" font-family="Helvetica,sans-Serif" font-size="10.00" fill="white">storage.</text>
<text text-anchor="middle" x="1099.12" y="-80.49" font-family="Helvetica,sans-Serif" font-size="10.00" fill="white">faiss_store</text>
</g>
<!-- luna_screening&#45;&gt;luna_storage_faiss_store -->
<g id="edge29" class="edge">
<title>luna_screening&#45;&gt;luna_storage_faiss_store</title><style>.edge>path:hover{stroke-width:8}</style>
<path fill="none" stroke="black" d="M964.35,-158C982.7,-177.6 1012,-206.38 1027.12,-207.99"/>
<path fill="none" stroke="black" d="M1028.12,-207.99C1067.74,-212.23 1085.69,-159.58 1093.23,-124.4"/>
<polygon fill="blue" stroke="black" points="1096.66,-125.05 1095.16,-114.56 1089.8,-123.69 1096.66,-125.05"/>
</g>
<!-- luna_screening_candidate_gen&#45;&gt;luna_pipeline -->
<g id="edge30" class="edge">
<title>luna_screening_candidate_gen&#45;&gt;luna_pipeline</title><style>.edge>path:hover{stroke-width:8}</style>
<path fill="none" stroke="black" d="M864.77,-163.59C888.22,-175.07 918.46,-189.18 946.12,-199.99"/>
<path fill="none" stroke="black" d="M948.12,-199.99C967.58,-207.6 973.09,-208.43 991.12,-218.99 1008.38,-229.1 1007.12,-245.99 1027.12,-245.99"/>
<path fill="none" stroke="black" d="M1028.12,-245.99C1059.23,-245.99 1067.02,-246.89 1098.12,-245.99"/>
</g>
<!-- luna_screening_candidate_gen&#45;&gt;luna_screening -->
<g id="edge31" class="edge">
<title>luna_screening_candidate_gen&#45;&gt;luna_screening</title><style>.edge>path:hover{stroke-width:8}</style>
<path fill="none" stroke="black" d="M867.13,-141.93C875.51,-141.73 884.39,-141.51 893.05,-141.3"/>
<polygon fill="blue" stroke="black" points="893.17,-144.79 903.08,-141.05 893,-137.8 893.17,-144.79"/>
</g>
<!-- luna_screening_engine -->
<g id="node19" class="node">
<title>luna_screening_engine</title><style>.edge>path:hover{stroke-width:8}</style>
<ellipse fill="#c04040" stroke="black" cx="695.74" cy="-142.99" rx="47.25" ry="28.98"/>
<text text-anchor="middle" x="695.74" y="-151.49" font-family="Helvetica,sans-Serif" font-size="10.00" fill="#ffffff">luna.</text>
<text text-anchor="middle" x="695.74" y="-140.49" font-family="Helvetica,sans-Serif" font-size="10.00" fill="#ffffff">screening.</text>
<text text-anchor="middle" x="695.74" y="-129.49" font-family="Helvetica,sans-Serif" font-size="10.00" fill="#ffffff">engine</text>
</g>
<!-- luna_screening_engine&#45;&gt;luna_screening_candidate_gen -->
<g id="edge32" class="edge">
<title>luna_screening_engine&#45;&gt;luna_screening_candidate_gen</title><style>.edge>path:hover{stroke-width:8}</style>
<path fill="none" stroke="black" d="M743.43,-142.99C751.64,-142.99 760.25,-142.99 768.64,-142.99"/>
<polygon fill="#c04040" stroke="black" points="768.71,-146.49 778.71,-142.99 768.71,-139.49 768.71,-146.49"/>
</g>
<!-- luna_screening_protocols -->
<g id="node20" class="node">
<title>luna_screening_protocols</title><style>.edge>path:hover{stroke-width:8}</style>
<ellipse fill="#db2f2f" stroke="black" cx="695.74" cy="-28.99" rx="47.25" ry="28.98"/>
<text text-anchor="middle" x="695.74" y="-37.49" font-family="Helvetica,sans-Serif" font-size="10.00" fill="#ffffff">luna.</text>
<text text-anchor="middle" x="695.74" y="-26.49" font-family="Helvetica,sans-Serif" font-size="10.00" fill="#ffffff">screening.</text>
<text text-anchor="middle" x="695.74" y="-15.49" font-family="Helvetica,sans-Serif" font-size="10.00" fill="#ffffff">protocols</text>
</g>
<!-- luna_screening_protocols&#45;&gt;luna_pipeline -->
<g id="edge33" class="edge">
<title>luna_screening_protocols&#45;&gt;luna_pipeline</title><style>.edge>path:hover{stroke-width:8}</style>
<path fill="none" stroke="black" d="M729.57,-49.52C754.18,-64.01 789.15,-82.79 822.12,-93.99"/>
<path fill="none" stroke="black" d="M824.12,-93.99C909.54,-123.02 938.12,-108.82 1027.12,-93.99"/>
<path fill="none" stroke="black" d="M1028.12,-93.99C1048.35,-89.06 1045.04,-72.35 1064.12,-63.99 1123.04,-38.16 1143.56,-39.07 1207.62,-44.99"/>
<path fill="none" stroke="black" d="M1209.62,-44.99C1236.76,-46.97 1264.83,-59.18 1286.14,-70.91"/>
<polygon fill="#db2f2f" stroke="black" points="1284.42,-73.96 1294.84,-75.88 1287.89,-67.88 1284.42,-73.96"/>
</g>
<!-- luna_screening_protocols&#45;&gt;luna_screening -->
<g id="edge34" class="edge">
<title>luna_screening_protocols&#45;&gt;luna_screening</title><style>.edge>path:hover{stroke-width:8}</style>
<path fill="none" stroke="black" d="M824.12,-93.99C846.98,-101.76 871.97,-111.04 893.34,-119.23"/>
<polygon fill="#db2f2f" stroke="black" points="892.3,-122.57 902.89,-122.9 894.81,-116.04 892.3,-122.57"/>
</g>
<!-- luna_screening_protocols&#45;&gt;luna_screening_candidate_gen -->
<g id="edge35" class="edge">
<title>luna_screening_protocols&#45;&gt;luna_screening_candidate_gen</title><style>.edge>path:hover{stroke-width:8}</style>
<path fill="none" stroke="black" d="M722.9,-52.93C729.54,-59.09 736.63,-65.75 743.12,-71.99 759.42,-87.69 762.32,-92.83 779.12,-107.99 782.01,-110.6 785.06,-113.26 788.15,-115.89"/>
<polygon fill="#db2f2f" stroke="black" points="785.92,-118.59 795.84,-122.31 790.41,-113.21 785.92,-118.59"/>
</g>
<!-- luna_screening_protocols&#45;&gt;luna_storage_faiss_store -->
<g id="edge36" class="edge">
<title>luna_screening_protocols&#45;&gt;luna_storage_faiss_store</title><style>.edge>path:hover{stroke-width:8}</style>
<path fill="none" stroke="black" d="M1028.12,-93.99C1036.38,-92.61 1045.28,-91.98 1053.86,-91.79"/>
<polygon fill="#db2f2f" stroke="black" points="1054.12,-95.29 1064.11,-91.75 1054.09,-88.29 1054.12,-95.29"/>
</g>
<!-- luna_storage -->
<g id="node21" class="node">
<title>luna_storage</title><style>.edge>path:hover{stroke-width:8}</style>
<polygon fill="blue" stroke="black" points="1247.12,-111.99 1170.12,-111.99 1170.12,-75.99 1247.12,-75.99 1247.12,-111.99"/>
<text text-anchor="middle" x="1208.62" y="-91.49" font-family="Helvetica,sans-Serif" font-size="10.00" fill="white">luna.storage</text>
</g>
<!-- luna_storage&#45;&gt;luna_pipeline -->
<g id="edge37" class="edge">
<title>luna_storage&#45;&gt;luna_pipeline</title><style>.edge>path:hover{stroke-width:8}</style>
<path fill="none" stroke="black" d="M1247.39,-93.99C1255.56,-93.99 1264.31,-93.99 1272.85,-93.99"/>
<polygon fill="blue" stroke="black" points="1273.1,-97.49 1283.1,-93.99 1273.1,-90.49 1273.1,-97.49"/>
</g>
<!-- luna_storage_faiss_store&#45;&gt;luna_pipeline -->
<g id="edge38" class="edge">
<title>luna_storage_faiss_store&#45;&gt;luna_pipeline</title><style>.edge>path:hover{stroke-width:8}</style>
<path fill="none" stroke="black" d="M1125.66,-73.4C1146.61,-58.79 1177.59,-42.22 1207.62,-44.99"/>
</g>
<!-- luna_storage_faiss_store&#45;&gt;luna_storage -->
<g id="edge39" class="edge">
<title>luna_storage_faiss_store&#45;&gt;luna_storage</title><style>.edge>path:hover{stroke-width:8}</style>
<path fill="none" stroke="black" d="M1134.13,-93.99C1142.35,-93.99 1151.29,-93.99 1160.01,-93.99"/>
<polygon fill="blue" stroke="black" points="1160.09,-97.49 1170.09,-93.99 1160.09,-90.49 1160.09,-97.49"/>
</g>
<!-- luna_utils -->
<g id="node23" class="node">
<title>luna_utils</title><style>.edge>path:hover{stroke-width:8}</style>
<ellipse fill="#a65959" stroke="black" cx="180.25" cy="-619.99" rx="36.49" ry="18"/>
<text text-anchor="middle" x="180.25" y="-617.49" font-family="Helvetica,sans-Serif" font-size="10.00" fill="#ffffff">luna.utils</text>
</g>
<!-- luna_utils_normalizer -->
<g id="node24" class="node">
<title>luna_utils_normalizer</title><style>.edge>path:hover{stroke-width:8}</style>
<ellipse fill="#b65353" stroke="black" cx="48.79" cy="-619.99" rx="48.58" ry="28.98"/>
<text text-anchor="middle" x="48.79" y="-628.49" font-family="Helvetica,sans-Serif" font-size="10.00" fill="#ffffff">luna.</text>
<text text-anchor="middle" x="48.79" y="-617.49" font-family="Helvetica,sans-Serif" font-size="10.00" fill="#ffffff">utils.</text>
<text text-anchor="middle" x="48.79" y="-606.49" font-family="Helvetica,sans-Serif" font-size="10.00" fill="#ffffff">normalizer</text>
</g>
<!-- luna_utils_normalizer&#45;&gt;luna_utils -->
<g id="edge40" class="edge">
<title>luna_utils_normalizer&#45;&gt;luna_utils</title><style>.edge>path:hover{stroke-width:8}</style>
<path fill="none" stroke="black" d="M97.63,-619.99C109.32,-619.99 121.8,-619.99 133.4,-619.99"/>
<polygon fill="#b65353" stroke="black" points="133.75,-623.49 143.75,-619.99 133.75,-616.49 133.75,-623.49"/>
</g>
</g>
</svg>
